<svg role="img" viewBox="0 0 24 24" xmlns="http://www.w3.org/2000/svg">
  <title>LinkedIn</title>
  <path d="M20.447 20.452h-3.554v-5.569c0-1.328-.025-3.039-1.852-3.039-1.853 0-2.136 1.447-2.136 2.941v5.667H9.35V9h3.413v1.561h.049c.476-.9 1.637-1.852 3.368-1.852 3.6 0 4.268 2.368 4.268 5.455v6.288zM5.337 7.433c-1.144 0-2.069-.927-2.069-2.07 0-1.144.925-2.07 2.069-2.07s2.07.926 2.07 2.07c0 1.143-.926 2.07-2.07 2.07zm1.777 13.019H3.56V9h3.554v11.452zM22.225 0H1.771C.792 0 0 .774 0 1.729v20.542C0 23.227.792 24 1.771 24h20.451C23.2 24 24 23.227 24 22.271V1.729C24 .774 23.2 0 22.222 0h.003z"></path>
</svg>
